<?xml version="1.0" standalone="no"?>
<!DOCTYPE svg PUBLIC "-//W3C//DTD SVG 20010904//EN"
 "http://www.w3.org/TR/2001/REC-SVG-20010904/DTD/svg10.dtd">
<svg version="1.0" xmlns="http://www.w3.org/2000/svg"
 width="447.000000pt" height="447.000000pt" viewBox="0 0 447.000000 447.000000"
 preserveAspectRatio="xMidYMid meet">
<metadata>
Created by potrace 1.14, written by Peter Selinger 2001-2017
</metadata>
<g transform="translate(0.000000,447.000000) scale(0.100000,-0.100000)"
fill="#000000" stroke="none">
<path d="M0 2235 l0 -2235 2235 0 2235 0 0 2235 0 2235 -2235 0 -2235 0 0
-2235z m2895 1285 c92 -239 171 -446 177 -460 7 -19 11 -21 18 -10 5 8 89 223
186 477 98 255 181 460 184 456 4 -5 62 -262 129 -573 67 -311 125 -575 128
-588 5 -22 3 -23 -48 -20 l-54 3 -16 70 c-9 39 -49 219 -89 400 -40 182 -75
334 -79 338 -4 4 -84 -188 -177 -427 -112 -289 -171 -430 -176 -418 -3 9 -79
202 -168 427 -88 226 -165 414 -169 418 -7 7 -36 -117 -148 -635 l-38 -178
-52 0 c-29 0 -53 4 -53 9 0 14 249 1153 256 1171 5 12 8 11 14 -5 4 -11 83
-216 175 -455z m-1419 429 c149 -27 312 -144 382 -275 17 -34 32 -65 32 -68 0
-3 -24 -6 -52 -6 -52 0 -54 1 -98 57 -109 138 -278 208 -441 182 -155 -24
-307 -154 -357 -305 -61 -180 -21 -363 106 -493 175 -179 445 -186 630 -16 30
27 65 66 78 87 24 37 26 38 85 38 l60 0 -33 -62 c-44 -85 -154 -194 -238 -235
-230 -115 -472 -75 -650 106 -128 130 -176 258 -167 441 18 363 318 611 663
549z m1715 -2148 c70 -27 141 -87 168 -144 31 -63 29 -67 -34 -67 -52 0 -55 1
-68 33 -28 64 -104 104 -219 113 -137 12 -250 -35 -289 -120 -24 -52 -24 -90
0 -142 34 -75 100 -111 313 -169 282 -77 378 -159 378 -322 0 -150 -91 -260
-255 -309 -81 -24 -258 -24 -338 0 -112 33 -193 100 -231 190 -26 62 -23 66
43 66 56 0 60 -2 69 -28 28 -82 117 -134 248 -147 183 -18 338 61 351 179 16
141 -58 201 -342 276 -66 18 -142 43 -170 55 -152 69 -215 176 -186 317 23
110 91 181 220 226 58 20 80 22 176 19 80 -4 125 -11 166 -26z m-1871 -454
c149 -352 197 -455 205 -444 6 8 95 215 199 461 l189 446 58 0 58 0 -27 -63
c-15 -35 -128 -300 -252 -590 -124 -290 -228 -527 -231 -527 -4 0 -446 1020
-506 1168 -4 10 8 12 53 10 l59 -3 195 -458z"/>
</g>
</svg>
